<?xml version="1.0" encoding="UTF-8"?>
<!DOCTYPE svg PUBLIC "-//W3C//DTD SVG 1.1//EN" "http://www.w3.org/Graphics/SVG/1.1/DTD/svg11.dtd">
<svg xmlns="http://www.w3.org/2000/svg" version="1.1" width="459px" height="586px" style="shape-rendering:geometricPrecision; text-rendering:geometricPrecision; image-rendering:optimizeQuality; fill-rule:evenodd; clip-rule:evenodd" xmlns:xlink="http://www.w3.org/1999/xlink">
<g><path style="opacity:1" fill="#e3e3e3" d="M -0.5,-0.5 C 0.166667,-0.5 0.833333,-0.5 1.5,-0.5C 1.5,-0.166667 1.5,0.166667 1.5,0.5C 1.5,195.167 1.5,389.833 1.5,584.5C 1.5,584.833 1.5,585.167 1.5,585.5C 0.833333,585.5 0.166667,585.5 -0.5,585.5C -0.5,390.167 -0.5,194.833 -0.5,-0.5 Z"/></g>
<g><path style="opacity:1" fill="#010101" d="M 1.5,0.5 C 153.5,0.5 305.5,0.5 457.5,0.5C 457.5,195.167 457.5,389.833 457.5,584.5C 305.5,584.5 153.5,584.5 1.5,584.5C 1.5,389.833 1.5,195.167 1.5,0.5 Z"/></g>
<g><path style="opacity:1" fill="#a9a8a9" d="M 1.5,0.5 C 1.5,0.166667 1.5,-0.166667 1.5,-0.5C 153.833,-0.5 306.167,-0.5 458.5,-0.5C 458.5,194.833 458.5,390.167 458.5,585.5C 306.167,585.5 153.833,585.5 1.5,585.5C 1.5,585.167 1.5,584.833 1.5,584.5C 153.5,584.5 305.5,584.5 457.5,584.5C 457.5,389.833 457.5,195.167 457.5,0.5C 305.5,0.5 153.5,0.5 1.5,0.5 Z"/></g>
<g><path style="opacity:1" fill="#f4f4f4" d="M 248.5,160.5 C 247.382,165.186 247.382,169.853 248.5,174.5C 235.5,174.5 222.5,174.5 209.5,174.5C 211.668,168.228 213.335,161.728 214.5,155C 214.333,154.167 214.167,153.333 214,152.5C 213.31,153.738 212.81,153.738 212.5,152.5C 217.733,116.434 223.4,80.4336 229.5,44.5C 236.353,83.0956 242.686,121.762 248.5,160.5 Z"/></g>
<g><path style="opacity:1" fill="#f6f6f6" d="M 395.5,85.5 C 378.568,132.922 360.568,180.256 341.5,227.5C 328.24,218.569 315.574,208.902 303.5,198.5C 334.414,160.986 365.081,123.32 395.5,85.5 Z"/></g>
<g><path style="opacity:1" fill="#f5f5f6" d="M 63.5,84.5 C 94.7202,121.912 125.72,159.579 156.5,197.5C 144.145,207.85 131.478,217.85 118.5,227.5C 100.316,179.755 81.9829,132.089 63.5,84.5 Z"/></g>
<g><path style="opacity:1" fill="#d8d8d8" d="M 212.5,152.5 C 212.81,153.738 213.31,153.738 214,152.5C 214.167,153.333 214.333,154.167 214.5,155C 213.335,161.728 211.668,168.228 209.5,174.5C 222.5,174.5 235.5,174.5 248.5,174.5C 247.382,169.853 247.382,165.186 248.5,160.5C 250.145,165.234 250.811,170.234 250.5,175.5C 236.5,175.5 222.5,175.5 208.5,175.5C 209.071,167.584 210.404,159.918 212.5,152.5 Z"/></g>
<g><path style="opacity:1" fill="#f8f8f8" d="M 190.5,192.5 C 216.835,192.333 243.169,192.5 269.5,193C 291.802,211.481 314.469,229.481 337.5,247C 330.833,267.514 324,288.014 317,308.5C 301.678,312.056 286.345,315.723 271,319.5C 269.739,319.241 268.739,318.574 268,317.5C 261.625,307.249 255.125,297.082 248.5,287C 236.167,286.333 223.833,286.333 211.5,287C 204.423,298.347 196.756,309.181 188.5,319.5C 173.447,316.32 158.447,312.986 143.5,309.5C 135.983,290.104 129.15,270.437 123,250.5C 122.333,248.833 122.333,247.167 123,245.5C 145.973,228.351 168.473,210.684 190.5,192.5 Z"/></g>
<g><path style="opacity:1" fill="#f1f1f1" d="M 143.5,344.5 C 143.169,351.863 143.503,359.197 144.5,366.5C 145.107,366.376 145.44,366.043 145.5,365.5C 147.843,362.41 151.01,360.744 155,360.5C 167.162,362.166 172.996,369.166 172.5,381.5C 172.773,397.399 165.106,404.233 149.5,402C 147.676,401.34 146.343,400.173 145.5,398.5C 145.44,397.957 145.107,397.624 144.5,397.5C 143.571,398.689 143.238,400.022 143.5,401.5C 140.5,401.5 137.5,401.5 134.5,401.5C 134.5,382.5 134.5,363.5 134.5,344.5C 137.5,344.5 140.5,344.5 143.5,344.5 Z"/></g>
<g><path style="opacity:1" fill="#6f6f6f" d="M 143.5,344.5 C 144.167,351.5 144.833,358.5 145.5,365.5C 145.44,366.043 145.107,366.376 144.5,366.5C 143.503,359.197 143.169,351.863 143.5,344.5 Z"/></g>
<g><path style="opacity:1" fill="#eeeeee" d="M 67.5,360.5 C 75.6799,359.012 82.5133,361.345 88,367.5C 89.7068,369.909 90.5402,372.575 90.5,375.5C 87.4281,375.817 84.4281,375.484 81.5,374.5C 78.4728,369.745 74.1394,368.245 68.5,370C 63.3098,375.652 62.1431,382.152 65,389.5C 65.7845,391.286 66.9512,392.786 68.5,394C 74.0939,395.753 78.4273,394.253 81.5,389.5C 84.4281,388.516 87.4281,388.183 90.5,388.5C 90.0653,395.107 86.732,399.607 80.5,402C 66.8805,405.611 58.0472,400.778 54,387.5C 51.6365,374.893 56.1365,365.893 67.5,360.5 Z"/></g>
<g><path style="opacity:1" fill="#f5f5f5" d="M 231.5,379.5 C 230.508,386.648 230.175,393.981 230.5,401.5C 227.833,401.5 225.167,401.5 222.5,401.5C 222.5,388.5 222.5,375.5 222.5,362.5C 225.167,362.5 227.833,362.5 230.5,362.5C 230.201,364.604 230.534,366.604 231.5,368.5C 232.107,368.376 232.44,368.043 232.5,367.5C 233.254,364.909 234.921,363.076 237.5,362C 240.482,361.502 243.482,361.335 246.5,361.5C 246.5,364.5 246.5,367.5 246.5,370.5C 238.799,369.178 233.799,372.178 231.5,379.5 Z"/></g>
<g><path style="opacity:1" fill="#efefef" d="M 215.5,376.5 C 215.5,379.167 215.5,381.833 215.5,384.5C 205.985,384.173 196.652,384.506 187.5,385.5C 188.89,394.531 193.89,397.365 202.5,394C 205.877,389.277 210.211,388.277 215.5,391C 209.7,402.051 200.7,405.718 188.5,402C 178.726,395.36 175.226,386.193 178,374.5C 184.476,360.452 194.643,356.952 208.5,364C 212.271,367.376 214.604,371.542 215.5,376.5 Z"/></g>
<g><path style="opacity:1" fill="#f0f0f0" d="M 105.5,415.5 C 102.167,415.5 98.8333,415.5 95.5,415.5C 95.5,413.167 95.5,410.833 95.5,408.5C 101.875,409.951 105.208,407.451 105.5,401C 100.917,387.748 96.2505,374.582 91.5,361.5C 95.1064,361.211 98.6064,361.544 102,362.5C 105,371.5 108,380.5 111,389.5C 114.68,380.461 117.513,371.127 119.5,361.5C 123.226,361.177 126.893,361.511 130.5,362.5C 124.34,378.823 118.173,395.157 112,411.5C 110.362,413.734 108.195,415.067 105.5,415.5 Z"/></g>
<g><path style="opacity:1" fill="#080808" d="M 149.5,369.5 C 155.392,368.073 159.559,370.073 162,375.5C 162.667,379.833 162.667,384.167 162,388.5C 159.185,394.169 154.685,396.002 148.5,394C 142.92,387.454 142.087,380.287 146,372.5C 147.145,371.364 148.312,370.364 149.5,369.5 Z"/></g>
<g><path style="opacity:1" fill="#0f0f0f" d="M 192.5,368.5 C 199.888,367.515 204.555,370.515 206.5,377.5C 200.167,377.5 193.833,377.5 187.5,377.5C 187.891,373.779 189.558,370.779 192.5,368.5 Z"/></g>
<g><path style="opacity:1" fill="#545354" d="M 215.5,376.5 C 216.477,379.287 216.81,382.287 216.5,385.5C 206.833,385.5 197.167,385.5 187.5,385.5C 196.652,384.506 205.985,384.173 215.5,384.5C 215.5,381.833 215.5,379.167 215.5,376.5 Z"/></g>
<g><path style="opacity:1" fill="#b1b2b2" d="M 232.5,367.5 C 232.44,368.043 232.107,368.376 231.5,368.5C 230.534,366.604 230.201,364.604 230.5,362.5C 227.833,362.5 225.167,362.5 222.5,362.5C 222.5,375.5 222.5,388.5 222.5,401.5C 225.167,401.5 227.833,401.5 230.5,401.5C 230.175,393.981 230.508,386.648 231.5,379.5C 231.5,387.167 231.5,394.833 231.5,402.5C 228.167,402.5 224.833,402.5 221.5,402.5C 221.5,388.833 221.5,375.167 221.5,361.5C 224.833,361.5 228.167,361.5 231.5,361.5C 231.205,363.735 231.539,365.735 232.5,367.5 Z"/></g>
<g><path style="opacity:1" fill="#717372" d="M 145.5,398.5 C 144.566,399.568 144.232,400.901 144.5,402.5C 140.958,402.813 137.625,402.479 134.5,401.5C 137.5,401.5 140.5,401.5 143.5,401.5C 143.238,400.022 143.571,398.689 144.5,397.5C 145.107,397.624 145.44,397.957 145.5,398.5 Z"/></g>
<g><path style="opacity:1" fill="#eeeeee" d="M 217.5,412.5 C 220.5,412.5 223.5,412.5 226.5,412.5C 226.187,416.042 226.521,419.375 227.5,422.5C 230.5,422.5 233.5,422.5 236.5,422.5C 236.5,425.167 236.5,427.833 236.5,430.5C 233.5,430.5 230.5,430.5 227.5,430.5C 227.334,438.507 227.5,446.507 228,454.5C 230.719,455.444 233.552,455.777 236.5,455.5C 236.5,458.167 236.5,460.833 236.5,463.5C 231.821,463.666 227.155,463.499 222.5,463C 221.333,461.833 220.167,460.667 219,459.5C 217.58,449.914 217.08,440.247 217.5,430.5C 215.167,430.5 212.833,430.5 210.5,430.5C 210.5,427.833 210.5,425.167 210.5,422.5C 212.833,422.5 215.167,422.5 217.5,422.5C 217.5,419.167 217.5,415.833 217.5,412.5 Z"/></g>
<g><path style="opacity:1" fill="#a8a7a7" d="M 95.5,408.5 C 95.5,410.833 95.5,413.167 95.5,415.5C 98.8333,415.5 102.167,415.5 105.5,415.5C 102.038,416.482 98.3714,416.815 94.5,416.5C 94.1936,413.615 94.5269,410.948 95.5,408.5 Z"/></g>
<g><path style="opacity:1" fill="#8f9390" d="M 217.5,412.5 C 220.625,411.521 223.958,411.187 227.5,411.5C 227.5,415.167 227.5,418.833 227.5,422.5C 226.521,419.375 226.187,416.042 226.5,412.5C 223.5,412.5 220.5,412.5 217.5,412.5 Z"/></g>
<g><path style="opacity:1" fill="#7f8181" d="M 284.5,423.5 C 287.625,422.521 290.958,422.187 294.5,422.5C 294.216,424.415 294.549,426.081 295.5,427.5C 295.44,428.043 295.107,428.376 294.5,428.5C 293.548,426.955 293.215,425.288 293.5,423.5C 290.833,423.5 288.167,423.5 285.5,423.5C 285.167,423.5 284.833,423.5 284.5,423.5 Z"/></g>
<g><path style="opacity:1" fill="#f1f1f1" d="M 108.5,422.5 C 126.648,419.654 135.314,427.321 134.5,445.5C 125.167,445.5 115.833,445.5 106.5,445.5C 107.606,454.723 112.606,457.89 121.5,455C 124.848,450.031 129.181,449.197 134.5,452.5C 129.767,461.926 122.1,465.759 111.5,464C 103.448,462.404 98.6148,457.571 97,449.5C 94.3608,437.546 98.1941,428.546 108.5,422.5 Z"/></g>
<g><path style="opacity:1" fill="#efefef" d="M 252.5,422.5 C 272.154,420.321 280.987,428.988 279,448.5C 275.03,461.489 266.363,466.489 253,463.5C 243.481,459.809 238.981,452.809 239.5,442.5C 239.853,433.102 244.186,426.436 252.5,422.5 Z"/></g>
<g><path style="opacity:1" fill="#f1f1f1" d="M 295.5,459.5 C 295.44,458.957 295.107,458.624 294.5,458.5C 293.504,464.798 293.17,471.132 293.5,477.5C 290.833,477.5 288.167,477.5 285.5,477.5C 285.5,459.5 285.5,441.5 285.5,423.5C 288.167,423.5 290.833,423.5 293.5,423.5C 293.215,425.288 293.548,426.955 294.5,428.5C 295.107,428.376 295.44,428.043 295.5,427.5C 296.673,425.496 298.34,423.996 300.5,423C 314.765,421.26 322.431,427.593 323.5,442C 323.82,455.001 317.654,462.501 305,464.5C 301.01,464.256 297.843,462.59 295.5,459.5 Z"/></g>
<g><path style="opacity:1" fill="#eeeeee" d="M 335.5,422.5 C 341.245,422.211 346.912,422.711 352.5,424C 356.504,426.471 358.504,429.971 358.5,434.5C 354.414,435.154 351.081,433.988 348.5,431C 344.833,429 341.167,429 337.5,431C 336.065,433.267 336.398,435.267 338.5,437C 344.167,438.667 349.833,440.333 355.5,442C 362.381,448.971 362.048,455.638 354.5,462C 345.168,466.224 336.668,465.058 329,458.5C 327.589,456.35 326.755,454.016 326.5,451.5C 328.884,451.557 331.218,451.223 333.5,450.5C 335.389,452.432 337.389,454.265 339.5,456C 343.244,456.929 346.744,456.429 350,454.5C 350.743,452.559 350.576,450.726 349.5,449C 344.625,447.198 339.625,445.865 334.5,445C 324.937,437.094 325.27,429.594 335.5,422.5 Z"/></g>
<g><path style="opacity:1" fill="#eceded" d="M 158.5,422.5 C 161.167,422.5 163.833,422.5 166.5,422.5C 166.5,425.833 166.5,429.167 166.5,432.5C 160.524,431.224 155.691,432.89 152,437.5C 151.5,446.16 151.334,454.827 151.5,463.5C 148.167,463.5 144.833,463.5 141.5,463.5C 141.5,450.167 141.5,436.833 141.5,423.5C 144.5,423.5 147.5,423.5 150.5,423.5C 150.338,425.527 150.505,427.527 151,429.5C 152.742,426.254 155.242,423.921 158.5,422.5 Z"/></g>
<g><path style="opacity:1" fill="#f0f0f0" d="M 66.5,422.5 C 72.2617,422.149 77.9284,422.649 83.5,424C 88.5669,426.635 91.2336,430.801 91.5,436.5C 88.4816,436.665 85.4816,436.498 82.5,436C 82.0418,433.602 80.7085,431.936 78.5,431C 69.44,429.059 64.7733,432.726 64.5,442C 63.9933,448.177 66.3266,452.844 71.5,456C 76.9783,456.927 80.645,454.76 82.5,449.5C 83.5,449.167 84.5,448.833 85.5,448.5C 87.5122,448.84 89.5122,449.173 91.5,449.5C 90.5402,457.296 86.2069,462.129 78.5,464C 66.3297,466.159 58.4964,461.325 55,449.5C 52.3138,437.555 56.1471,428.555 66.5,422.5 Z"/></g>
<g><path style="opacity:1" fill="#ededee" d="M 181.5,422.5 C 186.179,422.334 190.845,422.501 195.5,423C 200.631,423.816 204.131,426.649 206,431.5C 206.5,442.161 206.667,452.828 206.5,463.5C 203.5,463.5 200.5,463.5 197.5,463.5C 197.785,461.712 197.452,460.045 196.5,458.5C 191.706,464.025 185.706,465.858 178.5,464C 170.905,460.527 168.405,454.694 171,446.5C 172.5,445 174,443.5 175.5,442C 182.01,440.018 188.676,438.684 195.5,438C 197.221,432.198 194.887,429.364 188.5,429.5C 184.876,429.645 182.209,431.312 180.5,434.5C 177.572,435.484 174.572,435.817 171.5,435.5C 172.554,429.442 175.887,425.109 181.5,422.5 Z"/></g>
<g><path style="opacity:1" fill="#0d0d0d" d="M 113.5,429.5 C 120.179,429.153 124.179,432.153 125.5,438.5C 119.167,438.5 112.833,438.5 106.5,438.5C 106.986,434.019 109.319,431.019 113.5,429.5 Z"/></g>
<g><path style="opacity:1" fill="#0a0a0a" d="M 257.5,429.5 C 265.636,429.971 269.636,434.304 269.5,442.5C 270.075,450.389 266.575,455.056 259,456.5C 252.301,454.634 249.135,450.134 249.5,443C 249.279,436.584 251.946,432.084 257.5,429.5 Z"/></g>
<g><path style="opacity:1" fill="#0b0b0b" d="M 299.5,430.5 C 306.624,428.972 311.124,431.639 313,438.5C 313.937,443.403 313.27,448.07 311,452.5C 304.208,458.541 298.875,457.541 295,449.5C 294.333,444.833 294.333,440.167 295,435.5C 296.059,433.341 297.559,431.674 299.5,430.5 Z"/></g>
<g><path style="opacity:1" fill="#0d0d0d" d="M 191.5,444.5 C 193.167,444.5 194.833,444.5 196.5,444.5C 196.526,453.97 191.859,457.804 182.5,456C 178.208,451.82 178.874,448.487 184.5,446C 187.036,445.814 189.369,445.314 191.5,444.5 Z"/></g>
<g><path style="opacity:1" fill="#b3b2b3" d="M 284.5,423.5 C 284.833,423.5 285.167,423.5 285.5,423.5C 285.5,441.5 285.5,459.5 285.5,477.5C 288.167,477.5 290.833,477.5 293.5,477.5C 293.17,471.132 293.504,464.798 294.5,458.5C 295.107,458.624 295.44,458.957 295.5,459.5C 294.51,465.645 294.177,471.978 294.5,478.5C 291.167,478.5 287.833,478.5 284.5,478.5C 284.5,460.167 284.5,441.833 284.5,423.5 Z"/></g>
<g><path style="opacity:1" fill="#bab9b9" d="M 189.5,518.5 C 189.5,513.5 189.5,508.5 189.5,503.5C 193.523,502.443 191.523,502.276 183.5,503C 185.058,503.21 186.391,503.71 187.5,504.5C 185.833,504.5 184.167,504.5 182.5,504.5C 182.5,503.5 182.5,502.5 182.5,501.5C 186.833,501.5 191.167,501.5 195.5,501.5C 195.5,502.5 195.5,503.5 195.5,504.5C 193.833,504.5 192.167,504.5 190.5,504.5C 190.819,509.363 190.486,514.03 189.5,518.5 Z"/></g>
<g><path style="opacity:1" fill="#e2e2e3" d="M 107.5,510.5 C 104.833,510.5 102.167,510.5 99.5,510.5C 99.5,512.5 99.5,514.5 99.5,516.5C 102.5,516.5 105.5,516.5 108.5,516.5C 104.971,518.423 100.971,519.089 96.5,518.5C 96.5,512.833 96.5,507.167 96.5,501.5C 100.555,501.176 104.555,501.509 108.5,502.5C 105.572,503.484 102.572,503.817 99.5,503.5C 99.5,505.167 99.5,506.833 99.5,508.5C 102.698,507.964 105.365,508.631 107.5,510.5 Z"/></g>
<g><path style="opacity:1" fill="#d9d9d9" d="M 144.5,501.5 C 148.884,501.174 153.217,501.508 157.5,502.5C 155.955,503.452 154.288,503.785 152.5,503.5C 152.5,508.5 152.5,513.5 152.5,518.5C 151.5,518.5 150.5,518.5 149.5,518.5C 149.5,513.833 149.5,509.167 149.5,504.5C 147.833,504.5 146.167,504.5 144.5,504.5C 144.5,503.5 144.5,502.5 144.5,501.5 Z"/></g>
<g><path style="opacity:1" fill="#d2d1d1" d="M 319.5,501.5 C 320.5,501.5 321.5,501.5 322.5,501.5C 322.5,503.833 322.5,506.167 322.5,508.5C 325.167,508.5 327.833,508.5 330.5,508.5C 330.5,506.167 330.5,503.833 330.5,501.5C 331.5,501.5 332.5,501.5 333.5,501.5C 333.5,507.167 333.5,512.833 333.5,518.5C 332.5,518.5 331.5,518.5 330.5,518.5C 330.5,516.167 330.5,513.833 330.5,511.5C 327.833,511.5 325.167,511.5 322.5,511.5C 322.5,513.833 322.5,516.167 322.5,518.5C 321.5,518.5 320.5,518.5 319.5,518.5C 319.5,512.833 319.5,507.167 319.5,501.5 Z"/></g>
<g><path style="opacity:1" fill="#e3e3e3" d="M 71.5,501.5 C 83.0395,499.864 87.2062,504.531 84,515.5C 83.1667,516.333 82.3333,517.167 81.5,518C 78.1832,518.498 74.8499,518.665 71.5,518.5C 71.5,512.833 71.5,507.167 71.5,501.5 Z"/></g>
<g><path style="opacity:1" fill="#090909" d="M 79.5,504.5 C 81.7142,505.392 82.7142,507.058 82.5,509.5C 82.5328,512.102 81.5328,514.102 79.5,515.5C 77.8333,515.5 76.1667,515.5 74.5,515.5C 74.5,511.833 74.5,508.167 74.5,504.5C 76.1667,504.5 77.8333,504.5 79.5,504.5 Z"/></g>
<g><path style="opacity:1" fill="#dadada" d="M 205.5,502.5 C 206.251,501.427 207.251,501.26 208.5,502C 210,504.167 211.5,506.333 213,508.5C 214.366,506.63 215.533,504.63 216.5,502.5C 217.5,501.167 218.5,501.167 219.5,502.5C 215.527,507.112 213.86,512.446 214.5,518.5C 213.5,518.5 212.5,518.5 211.5,518.5C 211.713,512.272 209.713,506.939 205.5,502.5 Z"/></g>
<g><path style="opacity:1" fill="#717171" d="M 79.5,504.5 C 77.8333,504.5 76.1667,504.5 74.5,504.5C 74.5,508.167 74.5,511.833 74.5,515.5C 76.1667,515.5 77.8333,515.5 79.5,515.5C 77.7354,516.461 75.7354,516.795 73.5,516.5C 73.5,512.167 73.5,507.833 73.5,503.5C 75.7354,503.205 77.7354,503.539 79.5,504.5 Z"/></g>
<g><path style="opacity:1" fill="#e4e4e4" d="M 129.5,512.5 C 129.783,513.289 130.283,513.956 131,514.5C 131.499,510.179 131.666,505.846 131.5,501.5C 133.45,506.735 134.117,512.402 133.5,518.5C 132.178,518.67 131.011,518.337 130,517.5C 127.667,513.833 125.333,510.167 123,506.5C 122.827,510.541 122.327,514.541 121.5,518.5C 120.505,512.872 120.171,507.206 120.5,501.5C 121.822,501.33 122.989,501.663 124,502.5C 126.099,505.7 127.933,509.033 129.5,512.5 Z"/></g>
<g><path style="opacity:1" fill="#cccccc" d="M 168.5,501.5 C 169.5,501.5 170.5,501.5 171.5,501.5C 171.5,507.167 171.5,512.833 171.5,518.5C 170.5,518.5 169.5,518.5 168.5,518.5C 168.5,512.833 168.5,507.167 168.5,501.5 Z"/></g>
<g><path style="opacity:1" fill="#d5d5d6" d="M 345.5,501.5 C 346.5,501.5 347.5,501.5 348.5,501.5C 348.5,507.167 348.5,512.833 348.5,518.5C 347.5,518.5 346.5,518.5 345.5,518.5C 345.5,512.833 345.5,507.167 345.5,501.5 Z"/></g>
<g><path style="opacity:1" fill="#e7e6e7" d="M 189.5,518.5 C 187.564,514.285 186.897,509.619 187.5,504.5C 186.391,503.71 185.058,503.21 183.5,503C 191.523,502.276 193.523,502.443 189.5,503.5C 189.5,508.5 189.5,513.5 189.5,518.5 Z"/></g>
<g><path style="opacity:1" fill="#d8d8d8" d="M 384.5,501.5 C 388.555,501.176 392.555,501.509 396.5,502.5C 393.572,503.484 390.572,503.817 387.5,503.5C 387.5,505.167 387.5,506.833 387.5,508.5C 390.167,508.5 392.833,508.5 395.5,508.5C 395.5,509.5 395.5,510.5 395.5,511.5C 392.833,511.5 390.167,511.5 387.5,511.5C 387.5,513.167 387.5,514.833 387.5,516.5C 390.572,516.183 393.572,516.516 396.5,517.5C 392.555,518.491 388.555,518.824 384.5,518.5C 384.5,512.833 384.5,507.167 384.5,501.5 Z"/></g>
<g><path style="opacity:1" fill="#6e6b6f" d="M 131.5,501.5 C 131.666,505.846 131.499,510.179 131,514.5C 130.283,513.956 129.783,513.289 129.5,512.5C 130.167,508.833 130.833,505.167 131.5,501.5 Z"/></g>
<g><path style="opacity:1" fill="#f2f2f2" d="M 56.5,501.5 C 57.8142,503.915 58.4809,506.748 58.5,510C 58.1667,512.833 57.8333,515.667 57.5,518.5C 56.5046,512.872 56.1712,507.206 56.5,501.5 Z"/></g>
<g><path style="opacity:1" fill="#e3e3e3" d="M 270.5,501.5 C 273.85,501.335 277.183,501.502 280.5,502C 284.434,505.123 284.434,508.29 280.5,511.5C 281.5,513.5 282.5,515.5 283.5,517.5C 282.5,518.833 281.5,518.833 280.5,517.5C 279.815,513.382 277.482,511.382 273.5,511.5C 273.5,513.833 273.5,516.167 273.5,518.5C 272.5,518.5 271.5,518.5 270.5,518.5C 270.5,512.833 270.5,507.167 270.5,501.5 Z"/></g>
<g><path style="opacity:1" fill="#1f1f20" d="M 273.5,503.5 C 278.479,502.65 280.479,504.483 279.5,509C 277.527,509.495 275.527,509.662 273.5,509.5C 273.5,507.5 273.5,505.5 273.5,503.5 Z"/></g>
<g><path style="opacity:1" fill="#e0e0e0" d="M 359.5,501.5 C 360.5,501.5 361.5,501.5 362.5,501.5C 363.426,505.947 364.76,510.28 366.5,514.5C 368.14,510.231 369.473,505.898 370.5,501.5C 371.675,501.281 372.675,501.614 373.5,502.5C 371.429,507.714 369.762,513.047 368.5,518.5C 367.022,518.762 365.689,518.429 364.5,517.5C 362.429,512.286 360.762,506.953 359.5,501.5 Z"/></g>
<g><path style="opacity:1" fill="#d8d8d8" d="M 250.5,501.5 C 251.822,501.33 252.989,501.663 254,502.5C 256.536,507.607 258.369,512.94 259.5,518.5C 258.5,518.5 257.5,518.5 256.5,518.5C 256.763,515.266 255.263,513.932 252,514.5C 248.737,513.932 247.237,515.266 247.5,518.5C 246.5,518.5 245.5,518.5 244.5,518.5C 246.217,512.733 248.217,507.066 250.5,501.5 Z"/></g>
<g><path style="opacity:1" fill="#171616" d="M 251.5,505.5 C 252.771,507.109 253.771,508.942 254.5,511C 253.207,511.49 251.873,511.657 250.5,511.5C 250.517,509.435 250.85,507.435 251.5,505.5 Z"/></g>
<g><path style="opacity:1" fill="#575857" d="M 107.5,510.5 C 105.393,511.468 103.059,511.802 100.5,511.5C 100.5,512.833 100.5,514.167 100.5,515.5C 103.385,515.194 106.052,515.527 108.5,516.5C 105.5,516.5 102.5,516.5 99.5,516.5C 99.5,514.5 99.5,512.5 99.5,510.5C 102.167,510.5 104.833,510.5 107.5,510.5 Z"/></g>
<g><path style="opacity:1" fill="#dadada" d="M 297.5,501.5 C 300.187,501.336 302.854,501.503 305.5,502C 307.607,503.264 308.607,505.097 308.5,507.5C 306.176,507.338 304.509,506.172 303.5,504C 299.115,503.374 296.781,505.374 296.5,510C 298.148,517.058 301.648,518.224 307,513.5C 308.56,515.294 308.06,516.794 305.5,518C 296.475,519.481 292.641,515.648 294,506.5C 294.997,504.677 296.164,503.01 297.5,501.5 Z"/></g>
</svg>
